<svg id="Layer_1" version="1.1" viewBox="0 0 32 32" xml:space="preserve" xmlns="http://www.w3.org/2000/svg" enable-background="new 0 0 32 32"><g id="coffee_x5F_cup"><path d="M23 24c.7.3 1.4.5 2.1.5 2.6 0 4.9-2.3 4.9-4.9 0-2.7-2.1-4.9-4.7-5H4.2c-1.2 0-2.2.9-2.2 2v.1c0 5.2 3.4 9.6 8.1 11.1h-7c-.6 0-1.1.5-1.1 1.1 0 .6.5 1.1 1.1 1.1h23.2c.6 0 1.1-.5 1.1-1.1 0-.6-.5-1.1-1.1-1.1h-8.8c2.1-.6 4-2 5.5-3.8zm2.5-7.2c1.6.2 2.7 1.8 2.3 3.5-.3 1.2-1.4 2-2.6 2-.3 0-.7 0-1-.1.8-1.7 1.3-3.5 1.3-5.4zM9.4 10.1c-1.5.5-.8 2.8.6 2.3 1.7-.6 2.3-2.3 1.9-4-.2-.8-.7-1.6-1.1-2.4-.2-.4-.7-1.4-.1-1.8 1.3-.8.1-2.9-1.2-2.1-1.4 1-1.7 2.7-1.2 4.2.2.5 2.2 3.5 1.1 3.8zM16 11c-1.5.5-.8 2.8.6 2.3 1.7-.6 2.3-2.3 1.9-4-.2-.8-.7-1.6-1.1-2.4-.2-.4-.7-1.4-.1-1.8 1.3-.8.1-2.9-1.2-2.1-1.4.9-1.7 2.6-1.2 4.1.2.6 2.2 3.5 1.1 3.9z" fill="#276cda" class="fill-222a30"></path></g></svg>